HIERARCHY
ROOT Hips
{
  OFFSET 11.2666 35.419 -54.3259
  CHANNELS 6 Xposition Yposition Zposition Zrotation Xrotation Yrotation
  JOINT Spine
  {
    OFFSET 0 8.47295 0
    CHANNELS 6 Xposition Yposition Zposition Zrotation Xrotation Yrotation
    JOINT Head
    {
      OFFSET 0 13.8244 0
      CHANNELS 6 Xposition Yposition Zposition Zrotation Xrotation Yrotation
      End Site
      {
        OFFSET 0 4.52755 0
      }
    }
    JOINT LeftShoulder
    {
      OFFSET 0 9.96346 0
      CHANNELS 6 Xposition Yposition Zposition Zrotation Xrotation Yrotation
      JOINT LeftArm
      {
        OFFSET 7.30841 0 0
        CHANNELS 6 Xposition Yposition Zposition Zrotation Xrotation Yrotation
        JOINT LeftForeArm
        {
          OFFSET 10.7061 0 0
          CHANNELS 6 Xposition Yposition Zposition Zrotation Xrotation Yrotation
          JOINT LeftHand
          {
            OFFSET 8.49677 0 0
            CHANNELS 6 Xposition Yposition Zposition Zrotation Xrotation Yrotation
            JOINT LeftHandThumb1
            {
              OFFSET 0 0 0
              CHANNELS 6 Xposition Yposition Zposition Zrotation Xrotation Yrotation
              End Site
              {
                OFFSET 0 0 3.937
              }
            }
            JOINT LeftHand_End
            {
              OFFSET 3.937 0 0
              CHANNELS 6 Xposition Yposition Zposition Zrotation Xrotation Yrotation
              End Site
              {
                OFFSET 0 0 0
              }
            }
          }
        }
      }
    }
    JOINT RightShoulder
    {
      OFFSET 0 9.96346 0
      CHANNELS 6 Xposition Yposition Zposition Zrotation Xrotation Yrotation
      JOINT RightArm
      {
        OFFSET -7.30841 0 0
        CHANNELS 6 Xposition Yposition Zposition Zrotation Xrotation Yrotation
        JOINT RightForeArm
        {
          OFFSET -10.7061 0 0
          CHANNELS 6 Xposition Yposition Zposition Zrotation Xrotation Yrotation
          JOINT RightHand
          {
            OFFSET -8.49677 0 0
            CHANNELS 6 Xposition Yposition Zposition Zrotation Xrotation Yrotation
            JOINT RightHandThumb1
            {
              OFFSET 0 0 0
              CHANNELS 6 Xposition Yposition Zposition Zrotation Xrotation Yrotation
              End Site
              {
                OFFSET 0 0 3.937
              }
            }
            JOINT RightHand_End
            {
              OFFSET -3.937 0 0
              CHANNELS 6 Xposition Yposition Zposition Zrotation Xrotation Yrotation
              End Site
              {
                OFFSET 0 0 0
              }
            }
          }
        }
      }
    }
  }
  JOINT LeftUpLeg
  {
    OFFSET 4.03161 0 0
    CHANNELS 6 Xposition Yposition Zposition Zrotation Xrotation Yrotation
    JOINT LeftLeg
    {
      OFFSET 0 -16.7874 0
      CHANNELS 6 Xposition Yposition Zposition Zrotation Xrotation Yrotation
      JOINT LeftFoot
      {
        OFFSET 0 -15.4942 0
        CHANNELS 6 Xposition Yposition Zposition Zrotation Xrotation Yrotation
        JOINT LeftToeBase
        {
          OFFSET 0 -1.45131 5.41636
          CHANNELS 6 Xposition Yposition Zposition Zrotation Xrotation Yrotation
          End Site
          {
            OFFSET 0 0 2.95275
          }
        }
      }
    }
  }
  JOINT RightUpLeg
  {
    OFFSET -4.03161 0 0
    CHANNELS 6 Xposition Yposition Zposition Zrotation Xrotation Yrotation
    JOINT RightLeg
    {
      OFFSET 0 -16.7874 0
      CHANNELS 6 Xposition Yposition Zposition Zrotation Xrotation Yrotation
      JOINT RightFoot
      {
        OFFSET 0 -15.4942 0
        CHANNELS 6 Xposition Yposition Zposition Zrotation Xrotation Yrotation
        JOINT RightToeBase
        {
          OFFSET 0 -1.45131 5.41636
          CHANNELS 6 Xposition Yposition Zposition Zrotation Xrotation Yrotation
          End Site
          {
            OFFSET 0 0 2.95275
          }
        }
      }
    }
  }
}
MOTION
Frames:	7
Frame Time:	0.0333333
-4.865 35.8973 -163.641 -1.70535 -1.2154 -0.0896824 8.88178e-016 8.47295 0 2.41465 1.31403 0.970004 8.88178e-016 13.8244 -2.84217e-014 -2.59186 -4.31535 -2.71172 8.88178e-016 9.96346 -2.84217e-014 1.02471 2.84633 1.99074 7.30841 -7.10543e-015 0 -79.0098 31.6761 -6.45645 10.7061 0 2.84217e-014 5.11443 11.0239 -25.0824 8.49677 -1.42109e-014 1.42109e-014 -3.53604 -1.27222e-014 6.46226 0 0 0 -1.59028e-015 -6.36111e-015 -0 3.937 0 0 -1.59028e-015 -6.36111e-015 -0 8.88178e-016 9.96346 -2.84217e-014 -1.19855 10.2291 1.2858 -7.30841 0 -2.84217e-014 74.095 28.4725 13.6159 -10.7061 0 0 -2.0567 5.60745 20.1796 -8.49677 0 -1.42109e-014 6.13585 6.36111e-015 -7.1899 0 0 0 7.95139e-016 3.18055e-015 -0 -3.937 -1.42109e-014 -1.42109e-014 7.95139e-016 3.18055e-015 -0 4.03161 0 -2.84217e-014 -0.524221 7.40154 2.92565 0 -16.7874 2.84217e-014 3.47873e-016 5.5509 -0 0 -15.4942 0 -1.56377 -12.0201 4.58331 0 -1.45131 5.41636 1.08491e-015 -5.2056 3.19373e-015 -4.03161 0 0 -1.83818 7.4268 -10.7392 7.10543e-015 -16.7874 0 -5.96354e-016 7.3227 -0 0 -15.4942 0 10.5791 -9.21 2.3393 -7.10543e-015 -1.45131 5.41636 -8.93104e-016 -7.0744 -1.60248e-015 
-4.8524 35.8973 -163.593 -1.74616 -1.40111 0.0991484 0 8.47295 0 2.3574 1.41486 0.891463 0 13.8244 0 -2.49588 -3.95419 -2.33176 0 9.96346 0 1.09753 2.80865 1.83066 7.30841 0 0 -78.9186 31.6831 -6.5986 10.7061 1.42109e-014 0 5.16343 11.1501 -25.0459 8.49677 0 1.42109e-014 -3.35191 3.18055e-015 6.20365 0 0 0 -1.59028e-015 -3.18055e-015 1.59028e-015 3.937 0 0 -1.59028e-015 -3.18055e-015 1.59028e-015 0 9.96346 0 -1.12559 10.3044 1.20646 -7.30841 3.55271e-015 0 74.0146 28.5373 13.7743 -10.7061 0 -2.84217e-014 -2.04129 5.52187 20.3248 -8.49677 0 0 6.20863 9.54166e-015 -7.24462 0 0 0 4.41391e-032 3.18055e-015 -7.95139e-016 -3.937 1.42109e-014 0 4.41391e-032 3.18055e-015 -7.95139e-016 4.03161 0 0 -0.485812 7.7106 2.62517 -8.88178e-016 -16.7874 0 -5.96354e-016 5.4284 -0 0 -15.4942 2.84217e-014 -1.61832 -12.0574 4.64277 -3.55271e-015 -1.45131 5.41636 -1.21643e-016 -5.2267 1.59692e-015 -4.03161 -7.10543e-015 0 -1.79588 7.72221 -10.8765 -7.10543e-015 -16.7874 0 -5.85684e-016 7.3142 -3.20665e-015 0 -15.4942 0 10.5888 -9.22405 2.30285 0 -1.45131 5.41636 2.98177e-016 -7.1149 -0 
-4.83602 35.8971 -163.588 -1.76478 -1.33924 0.0839135 8.88178e-016 8.47295 0 2.28941 1.29551 0.833217 0 13.8244 0 -2.55558 -3.79395 -2.15278 8.88178e-016 9.96346 0 1.10055 2.75216 1.8629 7.30841 -7.10543e-015 0 -78.8323 32.1754 -6.65229 10.7061 -1.42109e-014 0 5.63454 12.3081 -24.8358 8.49677 -1.42109e-014 1.42109e-014 -2.06263 3.18055e-015 5.51178 0 0 0 -8.82781e-032 -3.18055e-015 -1.59028e-015 3.937 -1.42109e-014 0 -8.82781e-032 -3.18055e-015 -1.59028e-015 8.88178e-016 9.96346 0 -1.10582 10.1901 1.36087 -7.30841 0 -2.84217e-014 74.0802 28.5597 13.7686 -10.7061 -2.84217e-014 -2.84217e-014 -2.07439 5.59519 20.3799 -8.49677 0 0 6.16287 6.36111e-015 -7.16532 0 0 0 1.59028e-015 6.36111e-015 -1.59028e-015 -3.937 0 1.42109e-014 1.59028e-015 6.36111e-015 -1.59028e-015 4.03161 -7.10543e-015 0 -0.506896 7.70222 2.28882 0 -16.7874 -2.84217e-014 2.48481e-016 5.3389 -0 8.88178e-016 -15.4942 -2.84217e-014 -1.59032 -12.0125 4.94378 0 -1.45131 5.41636 -5.8393e-016 -5.4045 -0 -4.03161 -7.10543e-015 0 -1.80826 7.61925 -10.7254 0 -16.7874 0 -2.07012e-016 7.4167 1.60369e-015 0 -15.4942 -2.84217e-014 10.5889 -9.3137 2.18047 0 -1.45131 5.41636 1.49008e-015 -7.1108 3.20521e-015 
-4.83286 35.8969 -163.583 -1.76049 -1.26137 0.100956 -1.77636e-015 8.47295 -2.84217e-014 2.23812 1.1605 0.947905 0 13.8244 0 -2.6599 -3.65969 -2.11199 0 9.96346 0 1.1104 2.72429 1.76536 7.30841 0 0 -78.7626 32.1013 -6.69909 10.7061 0 0 5.64002 12.3009 -24.8699 8.49677 0 -1.42109e-014 -2.10611 -3.18055e-015 5.54406 0 0 0 -3.18055e-015 1.27222e-014 4.77083e-015 3.937 0 0 -3.18055e-015 1.27222e-014 4.77083e-015 0 9.96346 0 -1.07018 10.185 1.27034 -7.30841 0 0 74.0335 28.5819 13.9601 -10.7061 0 2.84217e-014 -2.08195 5.60786 20.4059 -8.49677 0 1.42109e-014 6.21253 3.18055e-015 -6.99086 0 0 0 -1.59028e-015 -3.18055e-015 1.59028e-015 -3.937 0 -1.42109e-014 -1.59028e-015 -3.18055e-015 1.59028e-015 4.03161 7.10543e-015 -2.84217e-014 -0.515155 7.56011 2.39887 8.88178e-016 -16.7874 2.84217e-014 7.22597e-016 5.4988 -7.98815e-016 0 -15.4942 0 -1.58094 -12.188 4.87365 -3.55271e-015 -1.45131 5.41636 -6.95746e-016 -5.2528 -0 -4.03161 0 0 -1.81271 7.50733 -10.5717 0 -16.7874 0 2.2118e-016 7.5219 -3.20816e-015 0 -15.4942 0 10.5687 -9.44298 2.01904 0 -1.45131 5.41636 1.19271e-015 -7.1168 -0 
-4.83398 35.8966 -163.589 -1.75004 -1.19866 -0.0419775 0 8.47295 0 2.10712 1.07083 1.1424 4.44089e-016 13.8244 2.84217e-014 -2.72825 -3.51711 -1.86571 4.44089e-016 9.96346 0 1.15375 2.613 1.71815 7.30841 7.10543e-015 2.84217e-014 -78.8202 31.7995 -6.53393 10.7061 0 -2.84217e-014 5.62054 12.2235 -24.9296 8.49677 0 0 -2.1728 -6.36111e-015 5.57122 0 0 0 4.77083e-015 3.18055e-015 -4.77083e-015 3.937 -1.42109e-014 0 4.77083e-015 3.18055e-015 -4.77083e-015 4.44089e-016 9.96346 0 -1.03985 10.2063 1.34206 -7.30841 3.55271e-015 0 74.2972 27.9261 13.9799 -10.7061 0 0 -2.04486 5.45031 20.6016 -8.49677 1.42109e-014 0 6.08546 3.18055e-015 -7.29241 0 0 0 7.95139e-016 -9.54166e-015 -1.59028e-015 -3.937 1.42109e-014 1.42109e-014 7.95139e-016 -9.54166e-015 -1.59028e-015 4.03161 -7.10543e-015 0 -0.544429 7.51008 2.63667 0 -16.7874 -2.84217e-014 3.8612e-016 5.4951 -3.99405e-016 -8.88178e-016 -15.4942 0 -1.55377 -12.2224 4.78238 0 -1.45131 5.41636 -1.49089e-016 -5.2069 -0 -4.03161 0 2.84217e-014 -1.86462 7.36233 -10.5188 0 -16.7874 0 -7.80622e-016 7.6394 -1.60452e-015 0 -15.4942 0 10.6416 -9.49119 2.13274 0 -1.45131 5.41636 -6.94768e-016 -7.0903 -1.60253e-015 
-4.8448 35.8964 -163.55 -1.74145 -1.39808 0.0693405 -8.88178e-016 8.47295 -2.84217e-014 1.98521 1.23612 1.03881 4.44089e-016 13.8244 0 -2.85259 -3.67085 -2.14731 4.44089e-016 9.96346 -2.84217e-014 1.25313 2.57215 1.75849 7.30841 -7.10543e-015 0 -79.2795 30.0366 -5.95244 10.7061 1.42109e-014 0 5.50708 11.7441 -25.346 8.49677 2.84217e-014 1.42109e-014 -2.22042 6.36111e-015 5.47883 0 0 0 -1.59028e-015 9.54166e-015 -3.18055e-015 3.937 0 -1.42109e-014 -1.59028e-015 9.54166e-015 -3.18055e-015 4.44089e-016 9.96346 -2.84217e-014 -1.03343 10.3769 1.26143 -7.30841 0 -2.84217e-014 75.3623 25.235 13.7449 -10.7061 7.10543e-015 0 -2.15567 5.67631 20.8352 -8.49677 -1.42109e-014 0 6.08206 -3.18055e-015 -6.96992 0 0 0 1.59028e-015 0 -1.59028e-015 -3.937 0 0 1.59028e-015 0 -1.59028e-015 4.03161 7.10543e-015 -2.84217e-014 -0.52423 7.87775 2.36805 -8.88178e-016 -16.7874 0 -3.97569e-016 5.2449 -0 0 -15.4942 -2.84217e-014 -1.54697 -12.0844 4.90569 0 -1.45131 5.41636 1.14534e-015 -5.4391 1.59747e-015 -4.03161 -7.10543e-015 0 -1.81828 7.71829 -10.6902 0 -16.7874 0 -2.0176e-017 7.4826 3.20787e-015 0 -15.4942 2.84217e-014 10.5351 -9.47616 2.1662 0 -1.45131 5.41636 1.2424e-015 -7.1321 -0 
-4.8522 35.8961 -163.554 -1.727 -1.27553 -0.0900161 1.77636e-015 8.47295 5.68434e-014 1.92406 1.04325 1.21396 -4.44089e-016 13.8244 0 -3.12722 -3.65671 -2.22756 -8.88178e-016 9.96346 0 1.35259 2.7916 2.0401 7.30841 1.42109e-014 0 -79.8801 27.325 -5.50426 10.7061 7.10543e-015 0 5.20974 10.8862 -25.7707 8.49677 -1.42109e-014 -1.42109e-014 -1.69203 9.54166e-015 5.51561 0 0 0 -3.18055e-015 6.36111e-015 -3.18055e-015 3.937 0 0 -3.18055e-015 6.36111e-015 -3.18055e-015 -8.88178e-016 9.96346 0 -1.17325 10.5074 1.04606 -7.30841 3.55271e-015 2.84217e-014 76.9018 21.6685 13.3938 -10.7061 -2.13163e-014 0 -1.81228 4.75285 20.9003 -8.49677 0 -1.42109e-014 5.10425 -6.36111e-015 -6.8261 0 0 0 -7.95139e-016 -3.18055e-015 -0 -3.937 0 2.84217e-014 -7.95139e-016 -3.18055e-015 -0 4.03161 0 2.84217e-014 -0.549875 7.76808 2.45623 0 -16.7874 -2.84217e-014 2.35265e-016 5.2427 -3.9924e-016 0 -15.4942 0 -1.60312 -12.1205 5.00021 3.55271e-015 -1.45131 5.41636 -1.56888e-016 -5.1906 -1.59683e-015 -4.03161 1.42109e-014 2.84217e-014 -1.85471 7.51268 -10.5383 0 -16.7874 0 -2.12132e-016 7.598 1.60436e-015 -7.10543e-015 -15.4942 0 10.594 -9.51139 2.18534 0 -1.45131 5.41636 1.51857e-016 -7.0759 -3.20496e-015 
